<svg xmlns="http://www.w3.org/2000/svg" xmlns:xlink="http://www.w3.org/1999/xlink" id="body_1" preserveAspectRatio="xMinYMin meet" viewBox="0 0 820 1160"><defs><clipPath id="1"><path clip-rule="evenodd" d="M0 870L0 0L0 0L615 0L615 0L615 870L615 870L0 870z" /></clipPath><clipPath id="2"><path clip-rule="evenodd" d="M0 0L614.4 0L614.4 0L614.4 869.1512L614.4 869.1512L0 869.1512L0 869.1512L0 0z" /></clipPath><clipPath id="3"><path clip-rule="evenodd" d="M0 0L614.4 0L614.4 0L614.4 869.1512L614.4 869.1512L0 869.1512L0 869.1512L0 0z" /></clipPath><clipPath id="4"><path clip-rule="evenodd" d="M48.70243 160.3434L123.6293 160.3434L123.6293 160.3434L123.6293 180.5736L123.6293 180.5736L48.70243 180.5736L48.70243 180.5736L48.70243 160.3434z" /></clipPath><clipPath id="5"><path clip-rule="evenodd" d="M0 0L614.4 0L614.4 0L614.4 869.1512L614.4 869.1512L0 869.1512L0 869.1512L0 0z" /></clipPath><clipPath id="6"><path clip-rule="evenodd" d="M0 0L614.4 0L614.4 0L614.4 869.1512L614.4 869.1512L0 869.1512L0 869.1512L0 0z" /></clipPath><clipPath id="7"><path clip-rule="evenodd" d="M48.70243 160.3434L123.6293 160.3434L123.6293 160.3434L123.6293 180.5736L123.6293 180.5736L48.70243 180.5736L48.70243 180.5736L48.70243 160.3434z" /></clipPath><clipPath id="8"><path clip-rule="evenodd" d="M0 0L614.4 0L614.4 0L614.4 869.1512L614.4 869.1512L0 869.1512L0 869.1512L0 0z" /></clipPath><clipPath id="9"><path clip-rule="evenodd" d="M0 0L614.4 0L614.4 0L614.4 869.1512L614.4 869.1512L0 869.1512L0 869.1512L0 0z" /></clipPath><clipPath id="10"><path clip-rule="evenodd" d="M257.7483 97.40485L332.6751 97.40485L332.6751 97.40485L332.6751 117.6351L332.6751 117.6351L257.7483 117.6351L257.7483 117.6351L257.7483 97.40485z" /></clipPath><clipPath id="11"><path clip-rule="evenodd" d="M0 0L614.4 0L614.4 0L614.4 869.1512L614.4 869.1512L0 869.1512L0 869.1512L0 0z" /></clipPath><clipPath id="12"><path clip-rule="evenodd" d="M0 0L614.4 0L614.4 0L614.4 869.1512L614.4 869.1512L0 869.1512L0 869.1512L0 0z" /></clipPath><clipPath id="13"><path clip-rule="evenodd" d="M257.7483 97.40485L332.6751 97.40485L332.6751 97.40485L332.6751 117.6351L332.6751 117.6351L257.7483 117.6351L257.7483 117.6351L257.7483 97.40485z" /></clipPath><clipPath id="14"><path clip-rule="evenodd" d="M0 0L614.4 0L614.4 0L614.4 869.1512L614.4 869.1512L0 869.1512L0 869.1512L0 0z" /></clipPath><clipPath id="15"><path clip-rule="evenodd" d="M0 0L614.4 0L614.4 0L614.4 869.1512L614.4 869.1512L0 869.1512L0 869.1512L0 0z" /></clipPath><clipPath id="16"><path clip-rule="evenodd" d="M257.7483 191.8127L332.6751 191.8127L332.6751 191.8127L332.6751 212.0429L332.6751 212.0429L257.7483 212.0429L257.7483 212.0429L257.7483 191.8127z" /></clipPath><clipPath id="17"><path clip-rule="evenodd" d="M0 0L614.4 0L614.4 0L614.4 869.1512L614.4 869.1512L0 869.1512L0 869.1512L0 0z" /></clipPath><clipPath id="18"><path clip-rule="evenodd" d="M0 0L614.4 0L614.4 0L614.4 869.1512L614.4 869.1512L0 869.1512L0 869.1512L0 0z" /></clipPath><clipPath id="19"><path clip-rule="evenodd" d="M257.7483 191.8127L332.6751 191.8127L332.6751 191.8127L332.6751 212.0429L332.6751 212.0429L257.7483 212.0429L257.7483 212.0429L257.7483 191.8127z" /></clipPath><clipPath id="20"><path clip-rule="evenodd" d="M0 0L614.4 0L614.4 0L614.4 869.1512L614.4 869.1512L0 869.1512L0 869.1512L0 0z" /></clipPath><clipPath id="21"><path clip-rule="evenodd" d="M0 0L614.4 0L614.4 0L614.4 869.1512L614.4 869.1512L0 869.1512L0 869.1512L0 0z" /></clipPath><clipPath id="22"><path clip-rule="evenodd" d="M486.2751 227.0283L582.1815 227.0283L582.1815 227.0283L582.1815 242.7629L582.1815 242.7629L486.2751 242.7629L486.2751 242.7629L486.2751 227.0283z" /></clipPath><clipPath id="23"><path clip-rule="evenodd" d="M0 0L614.4 0L614.4 0L614.4 869.1512L614.4 869.1512L0 869.1512L0 869.1512L0 0z" /></clipPath><clipPath id="24"><path clip-rule="evenodd" d="M0 0L614.4 0L614.4 0L614.4 869.1512L614.4 869.1512L0 869.1512L0 869.1512L0 0z" /></clipPath><clipPath id="25"><path clip-rule="evenodd" d="M486.2751 227.0283L582.1815 227.0283L582.1815 227.0283L582.1815 242.7629L582.1815 242.7629L486.2751 242.7629L486.2751 242.7629L486.2751 227.0283z" /></clipPath><clipPath id="26"><path clip-rule="evenodd" d="M0 0L614.4 0L614.4 0L614.4 869.1512L614.4 869.1512L0 869.1512L0 869.1512L0 0z" /></clipPath><clipPath id="27"><path clip-rule="evenodd" d="M0 0L614.4 0L614.4 0L614.4 869.1512L614.4 869.1512L0 869.1512L0 869.1512L0 0z" /></clipPath><clipPath id="28"><path clip-rule="evenodd" d="M486.2751 227.0283L582.1815 227.0283L582.1815 227.0283L582.1815 242.7629L582.1815 242.7629L486.2751 242.7629L486.2751 242.7629L486.2751 227.0283z" /></clipPath><clipPath id="29"><path clip-rule="evenodd" d="M0 0L614.4 0L614.4 0L614.4 869.1512L614.4 869.1512L0 869.1512L0 869.1512L0 0z" /></clipPath><clipPath id="30"><path clip-rule="evenodd" d="M0 0L614.4 0L614.4 0L614.4 869.1512L614.4 869.1512L0 869.1512L0 869.1512L0 0z" /></clipPath><clipPath id="31"><path clip-rule="evenodd" d="M486.2751 227.0283L582.1815 227.0283L582.1815 227.0283L582.1815 242.7629L582.1815 242.7629L486.2751 242.7629L486.2751 242.7629L486.2751 227.0283z" /></clipPath><clipPath id="32"><path clip-rule="evenodd" d="M0 0L614.4 0L614.4 0L614.4 869.1512L614.4 869.1512L0 869.1512L0 869.1512L0 0z" /></clipPath><clipPath id="33"><path clip-rule="evenodd" d="M0 0L614.4 0L614.4 0L614.4 869.1512L614.4 869.1512L0 869.1512L0 869.1512L0 0z" /></clipPath><clipPath id="34"><path clip-rule="evenodd" d="M332.6751 227.0283L471.2897 227.0283L471.2897 227.0283L471.2897 242.7629L471.2897 242.7629L332.6751 242.7629L332.6751 242.7629L332.6751 227.0283z" /></clipPath><clipPath id="35"><path clip-rule="evenodd" d="M0 0L614.4 0L614.4 0L614.4 869.1512L614.4 869.1512L0 869.1512L0 869.1512L0 0z" /></clipPath><clipPath id="36"><path clip-rule="evenodd" d="M0 0L614.4 0L614.4 0L614.4 869.1512L614.4 869.1512L0 869.1512L0 869.1512L0 0z" /></clipPath><clipPath id="37"><path clip-rule="evenodd" d="M332.6751 227.0283L471.2897 227.0283L471.2897 227.0283L471.2897 242.7629L471.2897 242.7629L332.6751 242.7629L332.6751 242.7629L332.6751 227.0283z" /></clipPath><clipPath id="38"><path clip-rule="evenodd" d="M0 0L614.4 0L614.4 0L614.4 869.1512L614.4 869.1512L0 869.1512L0 869.1512L0 0z" /></clipPath><clipPath id="39"><path clip-rule="evenodd" d="M0 0L614.4 0L614.4 0L614.4 869.1512L614.4 869.1512L0 869.1512L0 869.1512L0 0z" /></clipPath><clipPath id="40"><path clip-rule="evenodd" d="M332.6751 227.0283L471.2897 227.0283L471.2897 227.0283L471.2897 242.7629L471.2897 242.7629L332.6751 242.7629L332.6751 242.7629L332.6751 227.0283z" /></clipPath><clipPath id="41"><path clip-rule="evenodd" d="M0 0L614.4 0L614.4 0L614.4 869.1512L614.4 869.1512L0 869.1512L0 869.1512L0 0z" /></clipPath><clipPath id="42"><path clip-rule="evenodd" d="M0 0L614.4 0L614.4 0L614.4 869.1512L614.4 869.1512L0 869.1512L0 869.1512L0 0z" /></clipPath><clipPath id="43"><path clip-rule="evenodd" d="M332.6751 227.0283L471.2897 227.0283L471.2897 227.0283L471.2897 242.7629L471.2897 242.7629L332.6751 242.7629L332.6751 242.7629L332.6751 227.0283z" /></clipPath><clipPath id="44"><path clip-rule="evenodd" d="M0 0L614.4 0L614.4 0L614.4 869.1512L614.4 869.1512L0 869.1512L0 869.1512L0 0z" /></clipPath><clipPath id="45"><path clip-rule="evenodd" d="M0 0L614.4 0L614.4 0L614.4 869.1512L614.4 869.1512L0 869.1512L0 869.1512L0 0z" /></clipPath><clipPath id="46"><path clip-rule="evenodd" d="M257.7483 307.2L332.6751 307.2L332.6751 307.2L332.6751 327.4302L332.6751 327.4302L257.7483 327.4302L257.7483 327.4302L257.7483 307.2z" /></clipPath><clipPath id="47"><path clip-rule="evenodd" d="M0 0L614.4 0L614.4 0L614.4 869.1512L614.4 869.1512L0 869.1512L0 869.1512L0 0z" /></clipPath><clipPath id="48"><path clip-rule="evenodd" d="M0 0L614.4 0L614.4 0L614.4 869.1512L614.4 869.1512L0 869.1512L0 869.1512L0 0z" /></clipPath><clipPath id="49"><path clip-rule="evenodd" d="M257.7483 307.2L332.6751 307.2L332.6751 307.2L332.6751 327.4302L332.6751 327.4302L257.7483 327.4302L257.7483 327.4302L257.7483 307.2z" /></clipPath><clipPath id="50"><path clip-rule="evenodd" d="M0 0L614.4 0L614.4 0L614.4 869.1512L614.4 869.1512L0 869.1512L0 869.1512L0 0z" /></clipPath><clipPath id="51"><path clip-rule="evenodd" d="M0 0L614.4 0L614.4 0L614.4 869.1512L614.4 869.1512L0 869.1512L0 869.1512L0 0z" /></clipPath><clipPath id="52"><path clip-rule="evenodd" d="M257.7483 446.5639L332.6751 446.5639L332.6751 446.5639L332.6751 466.7941L332.6751 466.7941L257.7483 466.7941L257.7483 466.7941L257.7483 446.5639z" /></clipPath><clipPath id="53"><path clip-rule="evenodd" d="M0 0L614.4 0L614.4 0L614.4 869.1512L614.4 869.1512L0 869.1512L0 869.1512L0 0z" /></clipPath><clipPath id="54"><path clip-rule="evenodd" d="M0 0L614.4 0L614.4 0L614.4 869.1512L614.4 869.1512L0 869.1512L0 869.1512L0 0z" /></clipPath><clipPath id="55"><path clip-rule="evenodd" d="M257.7483 446.5639L332.6751 446.5639L332.6751 446.5639L332.6751 466.7941L332.6751 466.7941L257.7483 466.7941L257.7483 466.7941L257.7483 446.5639z" /></clipPath><clipPath id="56"><path clip-rule="evenodd" d="M0 0L614.4 0L614.4 0L614.4 869.1512L614.4 869.1512L0 869.1512L0 869.1512L0 0z" /></clipPath></defs><g transform="matrix(1.333333 0 0 1.333333 0 0)"><g clip-path="url(#1)"><g clip-path="url(#2)"><path transform="matrix(1 0 0 -1 0 870)" d="M0 870L614.4 870L614.4 0.8487549L0 0.8487549z" stroke="none" fill="#FFFFFF" fill-rule="nonzero" /><path transform="matrix(1 0 0 -1 0 870)" d="M0 870L614.4 870L614.4 0.8487549L0 0.8487549z" stroke="none" fill="#FFFFFF" fill-rule="nonzero" /><path transform="matrix(1 0 0 -1 0 870)" d="M0 870L202.3024 870L202.3024 0.8487549L0 0.8487549z" stroke="none" fill="#254665" fill-rule="nonzero" /><path transform="matrix(1 0 0 -1 0 870)" d="M202.3024 870L614.4 870L614.4 174.679L202.3024 174.679z" stroke="none" fill="#FFFFFF" fill-rule="nonzero" /><path transform="matrix(1 0 0 -1 0 870)" d="M33.71707 709.6566C 39.92101 709.6566 44.95609 704.6215 44.95609 698.4176C 44.95609 692.2136 39.92101 687.1786 33.71707 687.1786C 27.51313 687.1786 22.47805 692.2136 22.47805 698.4176C 22.47805 704.6215 27.51313 709.6566 33.71707 709.6566z" stroke="none" fill="#FFFFFF" fill-rule="evenodd" /><path transform="matrix(1 0 0 -1 0 870)" d="M22.47805 644.4702L119.8829 644.4702L119.8829 636.9775L22.47805 636.9775z" stroke="none" fill="#FFFFFF" fill-rule="nonzero" /><path transform="matrix(1 0 0 -1 0 870)" d="M22.47805 644.4702L100.4019 644.4702L100.4019 636.9775L22.47805 636.9775z" stroke="none" fill="#4487C6" fill-rule="nonzero" /><path transform="matrix(1 0 0 -1 0 870)" d="M22.47805 601.762L119.8829 601.762L119.8829 594.2693L22.47805 594.2693z" stroke="none" fill="#FFFFFF" fill-rule="nonzero" /><path transform="matrix(1 0 0 -1 0 870)" d="M22.47805 601.762L71.18048 601.762L71.18048 594.2693L22.47805 594.2693z" stroke="none" fill="#4487C6" fill-rule="nonzero" /><path transform="matrix(1 0 0 -1 0 870)" d="M22.47805 559.0536L119.8829 559.0536L119.8829 551.561L22.47805 551.561z" stroke="none" fill="#FFFFFF" fill-rule="nonzero" /><path transform="matrix(1 0 0 -1 0 870)" d="M22.47805 559.0536L46.45463 559.0536L46.45463 551.561L22.47805 551.561z" stroke="none" fill="#4487C6" fill-rule="nonzero" /><path transform="matrix(1 0 0 -1 0 870)" d="M22.47805 516.3453L119.8829 516.3453L119.8829 508.8527L22.47805 508.8527z" stroke="none" fill="#FFFFFF" fill-rule="nonzero" /><path transform="matrix(1 0 0 -1 0 870)" d="M22.47805 516.3453L71.18048 516.3453L71.18048 508.8527L22.47805 508.8527z" stroke="none" fill="#4487C6" fill-rule="nonzero" /><path transform="matrix(1 0 0 -1 0 870)" d="M22.47805 473.6371L119.8829 473.6371L119.8829 466.1444L22.47805 466.1444z" stroke="none" fill="#FFFFFF" fill-rule="nonzero" /><path transform="matrix(1 0 0 -1 0 870)" d="M22.47805 473.6371L71.18048 473.6371L71.18048 466.1444L22.47805 466.1444z" stroke="none" fill="#4487C6" fill-rule="nonzero" /><path transform="matrix(1 0 0 -1 0 870)" d="M22.47805 430.9288L119.8829 430.9288L119.8829 423.4361L22.47805 423.4361z" stroke="none" fill="#FFFFFF" fill-rule="nonzero" /><path transform="matrix(1 0 0 -1 0 870)" d="M22.47805 430.9288L46.45463 430.9288L46.45463 423.4361L22.47805 423.4361z" stroke="none" fill="#4487C6" fill-rule="nonzero" /><path transform="matrix(1 0 0 -1 0 870)" d="M22.47805 388.2205L119.8829 388.2205L119.8829 380.7278L22.47805 380.7278z" stroke="none" fill="#FFFFFF" fill-rule="nonzero" /><path transform="matrix(1 0 0 -1 0 870)" d="M22.47805 388.2205L71.18048 388.2205L71.18048 380.7278L22.47805 380.7278z" stroke="none" fill="#4487C6" fill-rule="nonzero" /><path transform="matrix(1 0 0 -1 0 870)" d="M22.47805 345.5122L119.8829 345.5122L119.8829 338.0195L22.47805 338.0195z" stroke="none" fill="#FFFFFF" fill-rule="nonzero" /><path transform="matrix(1 0 0 -1 0 870)" d="M22.47805 345.5122L71.18048 345.5122L71.18048 338.0195L22.47805 338.0195z" stroke="none" fill="#4487C6" fill-rule="nonzero" /><path transform="matrix(1 0 0 -1 0 870)" d="M22.47805 302.8039L119.8829 302.8039L119.8829 295.3112L22.47805 295.3112z" stroke="none" fill="#FFFFFF" fill-rule="nonzero" /><path transform="matrix(1 0 0 -1 0 870)" d="M22.47805 302.8039L46.45463 302.8039L46.45463 295.3112L22.47805 295.3112z" stroke="none" fill="#4487C6" fill-rule="nonzero" /><path transform="matrix(1 0 0 -1 0 870)" d="M22.47805 260.0956L119.8829 260.0956L119.8829 252.6029L22.47805 252.6029z" stroke="none" fill="#FFFFFF" fill-rule="nonzero" /><path transform="matrix(1 0 0 -1 0 870)" d="M22.47805 260.0956L100.4019 260.0956L100.4019 252.6029L22.47805 252.6029z" stroke="none" fill="#4487C6" fill-rule="nonzero" /></g><g clip-path="url(#3)"><g clip-path="url(#4)"></g></g><g clip-path="url(#5)"></g><g clip-path="url(#6)"><g clip-path="url(#7)"></g></g><g clip-path="url(#8)"><path transform="matrix(1 0 0 -1 0 870)" d="M239.0166 772.5952C 245.2205 772.5952 250.2556 767.5601 250.2556 761.3561C 250.2556 755.1522 245.2205 750.1171 239.0166 750.1171C 232.8126 750.1171 227.7775 755.1522 227.7775 761.3561C 227.7775 767.5601 232.8126 772.5952 239.0166 772.5952z" stroke="none" fill="#254665" fill-rule="evenodd" /><path transform="matrix(1 0 0 -1 0 870)" d="M257.7483 750.8663L582.9307 750.8663L582.9307 750.1171L257.7483 750.1171z" stroke="none" fill="#254665" fill-rule="nonzero" /></g><g clip-path="url(#9)"><g clip-path="url(#10)"></g></g><g clip-path="url(#11)"></g><g clip-path="url(#12)"><g clip-path="url(#13)"></g></g><g clip-path="url(#14)"><path transform="matrix(1 0 0 -1 0 870)" d="M239.0166 678.1873C 245.2205 678.1873 250.2556 673.1522 250.2556 666.9483C 250.2556 660.7444 245.2205 655.7093 239.0166 655.7093C 232.8126 655.7093 227.7775 660.7444 227.7775 666.9483C 227.7775 673.1522 232.8126 678.1873 239.0166 678.1873z" stroke="none" fill="#254665" fill-rule="evenodd" /><path transform="matrix(1 0 0 -1 0 870)" d="M257.7483 656.4586L582.9307 656.4586L582.9307 655.7093L257.7483 655.7093z" stroke="none" fill="#254665" fill-rule="nonzero" /></g><g clip-path="url(#15)"><g clip-path="url(#16)"></g></g><g clip-path="url(#17)"></g><g clip-path="url(#18)"><g clip-path="url(#19)"></g></g><g clip-path="url(#20)"></g><g clip-path="url(#21)"><g clip-path="url(#22)"></g></g><g clip-path="url(#23)"></g><g clip-path="url(#24)"><g clip-path="url(#25)"></g></g><g clip-path="url(#26)"></g><g clip-path="url(#27)"><g clip-path="url(#28)"></g></g><g clip-path="url(#29)"></g><g clip-path="url(#30)"><g clip-path="url(#31)"></g></g><g clip-path="url(#32)"></g><g clip-path="url(#33)"><g clip-path="url(#34)"></g></g><g clip-path="url(#35)"></g><g clip-path="url(#36)"><g clip-path="url(#37)"></g></g><g clip-path="url(#38)"></g><g clip-path="url(#39)"><g clip-path="url(#40)"></g></g><g clip-path="url(#41)"></g><g clip-path="url(#42)"><g clip-path="url(#43)"></g></g><g clip-path="url(#44)"><path transform="matrix(1 0 0 -1 0 870)" d="M239.0166 562.8C 245.2205 562.8 250.2556 557.7649 250.2556 551.561C 250.2556 545.3571 245.2205 540.322 239.0166 540.322C 232.8126 540.322 227.7775 545.3571 227.7775 551.561C 227.7775 557.7649 232.8126 562.8 239.0166 562.8z" stroke="none" fill="#254665" fill-rule="evenodd" /><path transform="matrix(1 0 0 -1 0 870)" d="M257.7483 541.0712L582.9307 541.0712L582.9307 540.322L257.7483 540.322z" stroke="none" fill="#254665" fill-rule="nonzero" /></g><g clip-path="url(#45)"><g clip-path="url(#46)"></g></g><g clip-path="url(#47)"></g><g clip-path="url(#48)"><g clip-path="url(#49)"></g></g><g clip-path="url(#50)"><path transform="matrix(1 0 0 -1 0 870)" d="M239.0166 423.4361C 245.2205 423.4361 250.2556 418.4011 250.2556 412.1971C 250.2556 405.9931 245.2205 400.9581 239.0166 400.9581C 232.8126 400.9581 227.7775 405.9931 227.7775 412.1971C 227.7775 418.4011 232.8126 423.4361 239.0166 423.4361z" stroke="none" fill="#254665" fill-rule="evenodd" /><path transform="matrix(1 0 0 -1 0 870)" d="M257.7483 401.7073L582.9307 401.7073L582.9307 400.958L257.7483 400.958z" stroke="none" fill="#254665" fill-rule="nonzero" /></g><g clip-path="url(#51)"><g clip-path="url(#52)"></g></g><g clip-path="url(#53)"></g><g clip-path="url(#54)"><g clip-path="url(#55)"></g></g><g clip-path="url(#56)"><path transform="matrix(1 0 0 -1 0 870)" d="M227.7775 376.2322L591.9219 376.2322L591.9219 334.2732L227.7775 334.2732z" stroke="none" fill="#F8F8F8" fill-rule="nonzero" /><path transform="matrix(1 0 0 -1 0 870)" d="M227.7775 325.2819L591.9219 325.2819L591.9219 283.3229L227.7775 283.3229z" stroke="none" fill="#F8F8F8" fill-rule="nonzero" /><path transform="matrix(1 0 0 -1 0 870)" d="M227.7775 274.3317L591.9219 274.3317L591.9219 232.3727L227.7775 232.3727z" stroke="none" fill="#F8F8F8" fill-rule="nonzero" /></g></g></g></svg>