<svg xmlns="http://www.w3.org/2000/svg" xmlns:xlink="http://www.w3.org/1999/xlink" id="body_1" preserveAspectRatio="xMinYMin meet" viewBox="0 0 820 1160"><defs><clipPath id="1"><path clip-rule="evenodd" d="M0 870L0 0L0 0L615 0L615 0L615 870L615 870L0 870z" /></clipPath><clipPath id="2"><path clip-rule="evenodd" d="M0 0L614.4 0L614.4 0L614.4 869.1512L614.4 869.1512L0 869.1512L0 869.1512L0 0z" /></clipPath><clipPath id="3"><path clip-rule="evenodd" d="M0 0L614.4 0L614.4 0L614.4 869.1512L614.4 869.1512L0 869.1512L0 869.1512L0 0z" /></clipPath><clipPath id="4"><path clip-rule="evenodd" d="M48.70243 268.9873L123.6293 268.9873L123.6293 268.9873L123.6293 289.2175L123.6293 289.2175L48.70243 289.2175L48.70243 289.2175L48.70243 268.9873z" /></clipPath><clipPath id="5"><path clip-rule="evenodd" d="M0 0L614.4 0L614.4 0L614.4 869.1512L614.4 869.1512L0 869.1512L0 869.1512L0 0z" /></clipPath><clipPath id="6"><path clip-rule="evenodd" d="M0 0L614.4 0L614.4 0L614.4 869.1512L614.4 869.1512L0 869.1512L0 869.1512L0 0z" /></clipPath><clipPath id="7"><path clip-rule="evenodd" d="M48.70243 268.9873L123.6293 268.9873L123.6293 268.9873L123.6293 289.2175L123.6293 289.2175L48.70243 289.2175L48.70243 289.2175L48.70243 268.9873z" /></clipPath><clipPath id="8"><path clip-rule="evenodd" d="M0 0L614.4 0L614.4 0L614.4 869.1512L614.4 869.1512L0 869.1512L0 869.1512L0 0z" /></clipPath><clipPath id="9"><path clip-rule="evenodd" d="M0 0L614.4 0L614.4 0L614.4 869.1512L614.4 869.1512L0 869.1512L0 869.1512L0 0z" /></clipPath><clipPath id="10"><path clip-rule="evenodd" d="M257.7483 97.40485L332.6751 97.40485L332.6751 97.40485L332.6751 117.6351L332.6751 117.6351L257.7483 117.6351L257.7483 117.6351L257.7483 97.40485z" /></clipPath><clipPath id="11"><path clip-rule="evenodd" d="M0 0L614.4 0L614.4 0L614.4 869.1512L614.4 869.1512L0 869.1512L0 869.1512L0 0z" /></clipPath><clipPath id="12"><path clip-rule="evenodd" d="M0 0L614.4 0L614.4 0L614.4 869.1512L614.4 869.1512L0 869.1512L0 869.1512L0 0z" /></clipPath><clipPath id="13"><path clip-rule="evenodd" d="M257.7483 97.40485L332.6751 97.40485L332.6751 97.40485L332.6751 117.6351L332.6751 117.6351L257.7483 117.6351L257.7483 117.6351L257.7483 97.40485z" /></clipPath><clipPath id="14"><path clip-rule="evenodd" d="M0 0L614.4 0L614.4 0L614.4 869.1512L614.4 869.1512L0 869.1512L0 869.1512L0 0z" /></clipPath><clipPath id="15"><path clip-rule="evenodd" d="M0 0L614.4 0L614.4 0L614.4 869.1512L614.4 869.1512L0 869.1512L0 869.1512L0 0z" /></clipPath><clipPath id="16"><path clip-rule="evenodd" d="M257.7483 191.8127L332.6751 191.8127L332.6751 191.8127L332.6751 212.0429L332.6751 212.0429L257.7483 212.0429L257.7483 212.0429L257.7483 191.8127z" /></clipPath><clipPath id="17"><path clip-rule="evenodd" d="M0 0L614.4 0L614.4 0L614.4 869.1512L614.4 869.1512L0 869.1512L0 869.1512L0 0z" /></clipPath><clipPath id="18"><path clip-rule="evenodd" d="M0 0L614.4 0L614.4 0L614.4 869.1512L614.4 869.1512L0 869.1512L0 869.1512L0 0z" /></clipPath><clipPath id="19"><path clip-rule="evenodd" d="M257.7483 191.8127L332.6751 191.8127L332.6751 191.8127L332.6751 212.0429L332.6751 212.0429L257.7483 212.0429L257.7483 212.0429L257.7483 191.8127z" /></clipPath><clipPath id="20"><path clip-rule="evenodd" d="M0 0L614.4 0L614.4 0L614.4 869.1512L614.4 869.1512L0 869.1512L0 869.1512L0 0z" /></clipPath><clipPath id="21"><path clip-rule="evenodd" d="M0 0L614.4 0L614.4 0L614.4 869.1512L614.4 869.1512L0 869.1512L0 869.1512L0 0z" /></clipPath><clipPath id="22"><path clip-rule="evenodd" d="M486.2751 227.0283L582.1815 227.0283L582.1815 227.0283L582.1815 242.7629L582.1815 242.7629L486.2751 242.7629L486.2751 242.7629L486.2751 227.0283z" /></clipPath><clipPath id="23"><path clip-rule="evenodd" d="M0 0L614.4 0L614.4 0L614.4 869.1512L614.4 869.1512L0 869.1512L0 869.1512L0 0z" /></clipPath><clipPath id="24"><path clip-rule="evenodd" d="M0 0L614.4 0L614.4 0L614.4 869.1512L614.4 869.1512L0 869.1512L0 869.1512L0 0z" /></clipPath><clipPath id="25"><path clip-rule="evenodd" d="M486.2751 227.0283L582.1815 227.0283L582.1815 227.0283L582.1815 242.7629L582.1815 242.7629L486.2751 242.7629L486.2751 242.7629L486.2751 227.0283z" /></clipPath><clipPath id="26"><path clip-rule="evenodd" d="M0 0L614.4 0L614.4 0L614.4 869.1512L614.4 869.1512L0 869.1512L0 869.1512L0 0z" /></clipPath><clipPath id="27"><path clip-rule="evenodd" d="M0 0L614.4 0L614.4 0L614.4 869.1512L614.4 869.1512L0 869.1512L0 869.1512L0 0z" /></clipPath><clipPath id="28"><path clip-rule="evenodd" d="M486.2751 227.0283L582.1815 227.0283L582.1815 227.0283L582.1815 242.7629L582.1815 242.7629L486.2751 242.7629L486.2751 242.7629L486.2751 227.0283z" /></clipPath><clipPath id="29"><path clip-rule="evenodd" d="M0 0L614.4 0L614.4 0L614.4 869.1512L614.4 869.1512L0 869.1512L0 869.1512L0 0z" /></clipPath><clipPath id="30"><path clip-rule="evenodd" d="M0 0L614.4 0L614.4 0L614.4 869.1512L614.4 869.1512L0 869.1512L0 869.1512L0 0z" /></clipPath><clipPath id="31"><path clip-rule="evenodd" d="M486.2751 227.0283L582.1815 227.0283L582.1815 227.0283L582.1815 242.7629L582.1815 242.7629L486.2751 242.7629L486.2751 242.7629L486.2751 227.0283z" /></clipPath><clipPath id="32"><path clip-rule="evenodd" d="M0 0L614.4 0L614.4 0L614.4 869.1512L614.4 869.1512L0 869.1512L0 869.1512L0 0z" /></clipPath><clipPath id="33"><path clip-rule="evenodd" d="M0 0L614.4 0L614.4 0L614.4 869.1512L614.4 869.1512L0 869.1512L0 869.1512L0 0z" /></clipPath><clipPath id="34"><path clip-rule="evenodd" d="M332.6751 227.0283L471.2897 227.0283L471.2897 227.0283L471.2897 242.7629L471.2897 242.7629L332.6751 242.7629L332.6751 242.7629L332.6751 227.0283z" /></clipPath><clipPath id="35"><path clip-rule="evenodd" d="M0 0L614.4 0L614.4 0L614.4 869.1512L614.4 869.1512L0 869.1512L0 869.1512L0 0z" /></clipPath><clipPath id="36"><path clip-rule="evenodd" d="M0 0L614.4 0L614.4 0L614.4 869.1512L614.4 869.1512L0 869.1512L0 869.1512L0 0z" /></clipPath><clipPath id="37"><path clip-rule="evenodd" d="M332.6751 227.0283L471.2897 227.0283L471.2897 227.0283L471.2897 242.7629L471.2897 242.7629L332.6751 242.7629L332.6751 242.7629L332.6751 227.0283z" /></clipPath><clipPath id="38"><path clip-rule="evenodd" d="M0 0L614.4 0L614.4 0L614.4 869.1512L614.4 869.1512L0 869.1512L0 869.1512L0 0z" /></clipPath><clipPath id="39"><path clip-rule="evenodd" d="M0 0L614.4 0L614.4 0L614.4 869.1512L614.4 869.1512L0 869.1512L0 869.1512L0 0z" /></clipPath><clipPath id="40"><path clip-rule="evenodd" d="M332.6751 227.0283L471.2897 227.0283L471.2897 227.0283L471.2897 242.7629L471.2897 242.7629L332.6751 242.7629L332.6751 242.7629L332.6751 227.0283z" /></clipPath><clipPath id="41"><path clip-rule="evenodd" d="M0 0L614.4 0L614.4 0L614.4 869.1512L614.4 869.1512L0 869.1512L0 869.1512L0 0z" /></clipPath><clipPath id="42"><path clip-rule="evenodd" d="M0 0L614.4 0L614.4 0L614.4 869.1512L614.4 869.1512L0 869.1512L0 869.1512L0 0z" /></clipPath><clipPath id="43"><path clip-rule="evenodd" d="M332.6751 227.0283L471.2897 227.0283L471.2897 227.0283L471.2897 242.7629L471.2897 242.7629L332.6751 242.7629L332.6751 242.7629L332.6751 227.0283z" /></clipPath><clipPath id="44"><path clip-rule="evenodd" d="M0 0L614.4 0L614.4 0L614.4 869.1512L614.4 869.1512L0 869.1512L0 869.1512L0 0z" /></clipPath><clipPath id="45"><path clip-rule="evenodd" d="M0 0L614.4 0L614.4 0L614.4 869.1512L614.4 869.1512L0 869.1512L0 869.1512L0 0z" /></clipPath><clipPath id="46"><path clip-rule="evenodd" d="M257.7483 307.2L332.6751 307.2L332.6751 307.2L332.6751 327.4302L332.6751 327.4302L257.7483 327.4302L257.7483 327.4302L257.7483 307.2z" /></clipPath><clipPath id="47"><path clip-rule="evenodd" d="M0 0L614.4 0L614.4 0L614.4 869.1512L614.4 869.1512L0 869.1512L0 869.1512L0 0z" /></clipPath><clipPath id="48"><path clip-rule="evenodd" d="M0 0L614.4 0L614.4 0L614.4 869.1512L614.4 869.1512L0 869.1512L0 869.1512L0 0z" /></clipPath><clipPath id="49"><path clip-rule="evenodd" d="M257.7483 307.2L332.6751 307.2L332.6751 307.2L332.6751 327.4302L332.6751 327.4302L257.7483 327.4302L257.7483 327.4302L257.7483 307.2z" /></clipPath><clipPath id="50"><path clip-rule="evenodd" d="M0 0L614.4 0L614.4 0L614.4 869.1512L614.4 869.1512L0 869.1512L0 869.1512L0 0z" /></clipPath><clipPath id="51"><path clip-rule="evenodd" d="M0 0L614.4 0L614.4 0L614.4 869.1512L614.4 869.1512L0 869.1512L0 869.1512L0 0z" /></clipPath><clipPath id="52"><path clip-rule="evenodd" d="M486.2751 342.4156L582.1815 342.4156L582.1815 342.4156L582.1815 358.1502L582.1815 358.1502L486.2751 358.1502L486.2751 358.1502L486.2751 342.4156z" /></clipPath><clipPath id="53"><path clip-rule="evenodd" d="M0 0L614.4 0L614.4 0L614.4 869.1512L614.4 869.1512L0 869.1512L0 869.1512L0 0z" /></clipPath><clipPath id="54"><path clip-rule="evenodd" d="M0 0L614.4 0L614.4 0L614.4 869.1512L614.4 869.1512L0 869.1512L0 869.1512L0 0z" /></clipPath><clipPath id="55"><path clip-rule="evenodd" d="M486.2751 342.4156L582.1815 342.4156L582.1815 342.4156L582.1815 358.1502L582.1815 358.1502L486.2751 358.1502L486.2751 358.1502L486.2751 342.4156z" /></clipPath><clipPath id="56"><path clip-rule="evenodd" d="M0 0L614.4 0L614.4 0L614.4 869.1512L614.4 869.1512L0 869.1512L0 869.1512L0 0z" /></clipPath><clipPath id="57"><path clip-rule="evenodd" d="M0 0L614.4 0L614.4 0L614.4 869.1512L614.4 869.1512L0 869.1512L0 869.1512L0 0z" /></clipPath><clipPath id="58"><path clip-rule="evenodd" d="M486.2751 342.4156L582.1815 342.4156L582.1815 342.4156L582.1815 358.1502L582.1815 358.1502L486.2751 358.1502L486.2751 358.1502L486.2751 342.4156z" /></clipPath><clipPath id="59"><path clip-rule="evenodd" d="M0 0L614.4 0L614.4 0L614.4 869.1512L614.4 869.1512L0 869.1512L0 869.1512L0 0z" /></clipPath><clipPath id="60"><path clip-rule="evenodd" d="M0 0L614.4 0L614.4 0L614.4 869.1512L614.4 869.1512L0 869.1512L0 869.1512L0 0z" /></clipPath><clipPath id="61"><path clip-rule="evenodd" d="M486.2751 342.4156L582.1815 342.4156L582.1815 342.4156L582.1815 358.1502L582.1815 358.1502L486.2751 358.1502L486.2751 358.1502L486.2751 342.4156z" /></clipPath><clipPath id="62"><path clip-rule="evenodd" d="M0 0L614.4 0L614.4 0L614.4 869.1512L614.4 869.1512L0 869.1512L0 869.1512L0 0z" /></clipPath><clipPath id="63"><path clip-rule="evenodd" d="M0 0L614.4 0L614.4 0L614.4 869.1512L614.4 869.1512L0 869.1512L0 869.1512L0 0z" /></clipPath><clipPath id="64"><path clip-rule="evenodd" d="M332.6751 342.4156L471.2897 342.4156L471.2897 342.4156L471.2897 358.1502L471.2897 358.1502L332.6751 358.1502L332.6751 358.1502L332.6751 342.4156z" /></clipPath><clipPath id="65"><path clip-rule="evenodd" d="M0 0L614.4 0L614.4 0L614.4 869.1512L614.4 869.1512L0 869.1512L0 869.1512L0 0z" /></clipPath><clipPath id="66"><path clip-rule="evenodd" d="M0 0L614.4 0L614.4 0L614.4 869.1512L614.4 869.1512L0 869.1512L0 869.1512L0 0z" /></clipPath><clipPath id="67"><path clip-rule="evenodd" d="M332.6751 342.4156L471.2897 342.4156L471.2897 342.4156L471.2897 358.1502L471.2897 358.1502L332.6751 358.1502L332.6751 358.1502L332.6751 342.4156z" /></clipPath><clipPath id="68"><path clip-rule="evenodd" d="M0 0L614.4 0L614.4 0L614.4 869.1512L614.4 869.1512L0 869.1512L0 869.1512L0 0z" /></clipPath><clipPath id="69"><path clip-rule="evenodd" d="M0 0L614.4 0L614.4 0L614.4 869.1512L614.4 869.1512L0 869.1512L0 869.1512L0 0z" /></clipPath><clipPath id="70"><path clip-rule="evenodd" d="M332.6751 342.4156L471.2897 342.4156L471.2897 342.4156L471.2897 358.1502L471.2897 358.1502L332.6751 358.1502L332.6751 358.1502L332.6751 342.4156z" /></clipPath><clipPath id="71"><path clip-rule="evenodd" d="M0 0L614.4 0L614.4 0L614.4 869.1512L614.4 869.1512L0 869.1512L0 869.1512L0 0z" /></clipPath><clipPath id="72"><path clip-rule="evenodd" d="M0 0L614.4 0L614.4 0L614.4 869.1512L614.4 869.1512L0 869.1512L0 869.1512L0 0z" /></clipPath><clipPath id="73"><path clip-rule="evenodd" d="M332.6751 342.4156L471.2897 342.4156L471.2897 342.4156L471.2897 358.1502L471.2897 358.1502L332.6751 358.1502L332.6751 358.1502L332.6751 342.4156z" /></clipPath><clipPath id="74"><path clip-rule="evenodd" d="M0 0L614.4 0L614.4 0L614.4 869.1512L614.4 869.1512L0 869.1512L0 869.1512L0 0z" /></clipPath><clipPath id="75"><path clip-rule="evenodd" d="M0 0L614.4 0L614.4 0L614.4 869.1512L614.4 869.1512L0 869.1512L0 869.1512L0 0z" /></clipPath><clipPath id="76"><path clip-rule="evenodd" d="M257.7483 422.5873L332.6751 422.5873L332.6751 422.5873L332.6751 442.8175L332.6751 442.8175L257.7483 442.8175L257.7483 442.8175L257.7483 422.5873z" /></clipPath><clipPath id="77"><path clip-rule="evenodd" d="M0 0L614.4 0L614.4 0L614.4 869.1512L614.4 869.1512L0 869.1512L0 869.1512L0 0z" /></clipPath><clipPath id="78"><path clip-rule="evenodd" d="M0 0L614.4 0L614.4 0L614.4 869.1512L614.4 869.1512L0 869.1512L0 869.1512L0 0z" /></clipPath><clipPath id="79"><path clip-rule="evenodd" d="M257.7483 422.5873L332.6751 422.5873L332.6751 422.5873L332.6751 442.8175L332.6751 442.8175L257.7483 442.8175L257.7483 442.8175L257.7483 422.5873z" /></clipPath><clipPath id="80"><path clip-rule="evenodd" d="M0 0L614.4 0L614.4 0L614.4 869.1512L614.4 869.1512L0 869.1512L0 869.1512L0 0z" /></clipPath><clipPath id="81"><path clip-rule="evenodd" d="M0 0L614.4 0L614.4 0L614.4 869.1512L614.4 869.1512L0 869.1512L0 869.1512L0 0z" /></clipPath><clipPath id="82"><path clip-rule="evenodd" d="M257.7483 561.9512L332.6751 561.9512L332.6751 561.9512L332.6751 582.1815L332.6751 582.1815L257.7483 582.1815L257.7483 582.1815L257.7483 561.9512z" /></clipPath><clipPath id="83"><path clip-rule="evenodd" d="M0 0L614.4 0L614.4 0L614.4 869.1512L614.4 869.1512L0 869.1512L0 869.1512L0 0z" /></clipPath><clipPath id="84"><path clip-rule="evenodd" d="M0 0L614.4 0L614.4 0L614.4 869.1512L614.4 869.1512L0 869.1512L0 869.1512L0 0z" /></clipPath><clipPath id="85"><path clip-rule="evenodd" d="M257.7483 561.9512L332.6751 561.9512L332.6751 561.9512L332.6751 582.1815L332.6751 582.1815L257.7483 582.1815L257.7483 582.1815L257.7483 561.9512z" /></clipPath><clipPath id="86"><path clip-rule="evenodd" d="M0 0L614.4 0L614.4 0L614.4 869.1512L614.4 869.1512L0 869.1512L0 869.1512L0 0z" /></clipPath></defs><g transform="matrix(1.333333 0 0 1.333333 0 0)"><g clip-path="url(#1)"><g clip-path="url(#2)"><path transform="matrix(1 0 0 -1 0 870)" d="M0 870L614.4 870L614.4 0.8487549L0 0.8487549z" stroke="none" fill="#FFFFFF" fill-rule="nonzero" /><path transform="matrix(1 0 0 -1 0 870)" d="M0 870L614.4 870L614.4 0.8487549L0 0.8487549z" stroke="none" fill="#FFFFFF" fill-rule="nonzero" /><path transform="matrix(1 0 0 -1 0 870)" d="M0 870L202.3024 870L202.3024 0.8487549L0 0.8487549z" stroke="none" fill="#254665" fill-rule="nonzero" /><path transform="matrix(1 0 0 -1 0 870)" d="M202.3024 870L614.4 870L614.4 59.29169L202.3024 59.29169z" stroke="none" fill="#FFFFFF" fill-rule="nonzero" /><path transform="matrix(1 0 0 -1 0 870)" d="M41.20975 632.8566L83.16878 632.8566" stroke="#FFFFFF" stroke-width="0.7492682" stroke-linecap="square" fill="none" /><path transform="matrix(1 0 0 -1 0 870)" d="M33.71707 601.0127C 39.92101 601.0127 44.95609 595.9776 44.95609 589.7737C 44.95609 583.5697 39.92101 578.5347 33.71707 578.5347C 27.51313 578.5347 22.47805 583.5697 22.47805 589.7737C 22.47805 595.9776 27.51313 601.0127 33.71707 601.0127z" stroke="none" fill="#FFFFFF" fill-rule="evenodd" /><path transform="matrix(1 0 0 -1 0 870)" d="M22.47805 535.8264L119.8829 535.8264L119.8829 528.3336L22.47805 528.3336z" stroke="none" fill="#FFFFFF" fill-rule="nonzero" /><path transform="matrix(1 0 0 -1 0 870)" d="M22.47805 535.8264L100.4019 535.8264L100.4019 528.3336L22.47805 528.3336z" stroke="none" fill="#4487C6" fill-rule="nonzero" /><path transform="matrix(1 0 0 -1 0 870)" d="M22.47805 493.118L119.8829 493.118L119.8829 485.6254L22.47805 485.6254z" stroke="none" fill="#FFFFFF" fill-rule="nonzero" /><path transform="matrix(1 0 0 -1 0 870)" d="M22.47805 493.118L100.4019 493.118L100.4019 485.6254L22.47805 485.6254z" stroke="none" fill="#4487C6" fill-rule="nonzero" /><path transform="matrix(1 0 0 -1 0 870)" d="M22.47805 450.4098L119.8829 450.4098L119.8829 442.9171L22.47805 442.9171z" stroke="none" fill="#FFFFFF" fill-rule="nonzero" /><path transform="matrix(1 0 0 -1 0 870)" d="M22.47805 450.4098L71.18048 450.4098L71.18048 442.9171L22.47805 442.9171z" stroke="none" fill="#4487C6" fill-rule="nonzero" /><path transform="matrix(1 0 0 -1 0 870)" d="M22.47805 407.7015L119.8829 407.7015L119.8829 400.2088L22.47805 400.2088z" stroke="none" fill="#FFFFFF" fill-rule="nonzero" /><path transform="matrix(1 0 0 -1 0 870)" d="M22.47805 407.7015L46.45463 407.7015L46.45463 400.2088L22.47805 400.2088z" stroke="none" fill="#4487C6" fill-rule="nonzero" /><path transform="matrix(1 0 0 -1 0 870)" d="M22.47805 364.9932L119.8829 364.9932L119.8829 357.5005L22.47805 357.5005z" stroke="none" fill="#FFFFFF" fill-rule="nonzero" /><path transform="matrix(1 0 0 -1 0 870)" d="M22.47805 364.9932L100.4019 364.9932L100.4019 357.5005L22.47805 357.5005z" stroke="none" fill="#4487C6" fill-rule="nonzero" /><path transform="matrix(1 0 0 -1 0 870)" d="M22.47805 322.2849L119.8829 322.2849L119.8829 314.7922L22.47805 314.7922z" stroke="none" fill="#FFFFFF" fill-rule="nonzero" /><path transform="matrix(1 0 0 -1 0 870)" d="M22.47805 322.2849L71.18048 322.2849L71.18048 314.7922L22.47805 314.7922z" stroke="none" fill="#4487C6" fill-rule="nonzero" /><path transform="matrix(1 0 0 -1 0 870)" d="M22.47805 279.5766L119.8829 279.5766L119.8829 272.0839L22.47805 272.0839z" stroke="none" fill="#FFFFFF" fill-rule="nonzero" /><path transform="matrix(1 0 0 -1 0 870)" d="M22.47805 279.5766L71.18048 279.5766L71.18048 272.0839L22.47805 272.0839z" stroke="none" fill="#4487C6" fill-rule="nonzero" /><path transform="matrix(1 0 0 -1 0 870)" d="M22.47805 236.8683L119.8829 236.8683L119.8829 229.3756L22.47805 229.3756z" stroke="none" fill="#FFFFFF" fill-rule="nonzero" /><path transform="matrix(1 0 0 -1 0 870)" d="M22.47805 236.8683L46.45463 236.8683L46.45463 229.3756L22.47805 229.3756z" stroke="none" fill="#4487C6" fill-rule="nonzero" /><path transform="matrix(1 0 0 -1 0 870)" d="M22.47805 194.16L119.8829 194.16L119.8829 186.6673L22.47805 186.6673z" stroke="none" fill="#FFFFFF" fill-rule="nonzero" /><path transform="matrix(1 0 0 -1 0 870)" d="M22.47805 194.16L46.45463 194.16L46.45463 186.6673L22.47805 186.6673z" stroke="none" fill="#4487C6" fill-rule="nonzero" /><path transform="matrix(1 0 0 -1 0 870)" d="M22.47805 151.4517L119.8829 151.4517L119.8829 143.959L22.47805 143.959z" stroke="none" fill="#FFFFFF" fill-rule="nonzero" /><path transform="matrix(1 0 0 -1 0 870)" d="M22.47805 151.4517L71.18048 151.4517L71.18048 143.959L22.47805 143.959z" stroke="none" fill="#4487C6" fill-rule="nonzero" /></g><g clip-path="url(#3)"><g clip-path="url(#4)"></g></g><g clip-path="url(#5)"></g><g clip-path="url(#6)"><g clip-path="url(#7)"></g></g><g clip-path="url(#8)"><path transform="matrix(1 0 0 -1 0 870)" d="M239.0166 772.5952C 245.2205 772.5952 250.2556 767.5601 250.2556 761.3561C 250.2556 755.1522 245.2205 750.1171 239.0166 750.1171C 232.8126 750.1171 227.7775 755.1522 227.7775 761.3561C 227.7775 767.5601 232.8126 772.5952 239.0166 772.5952z" stroke="none" fill="#254665" fill-rule="evenodd" /><path transform="matrix(1 0 0 -1 0 870)" d="M257.7483 750.8663L582.9307 750.8663L582.9307 750.1171L257.7483 750.1171z" stroke="none" fill="#254665" fill-rule="nonzero" /></g><g clip-path="url(#9)"><g clip-path="url(#10)"></g></g><g clip-path="url(#11)"></g><g clip-path="url(#12)"><g clip-path="url(#13)"></g></g><g clip-path="url(#14)"><path transform="matrix(1 0 0 -1 0 870)" d="M239.0166 678.1873C 245.2205 678.1873 250.2556 673.1522 250.2556 666.9483C 250.2556 660.7444 245.2205 655.7093 239.0166 655.7093C 232.8126 655.7093 227.7775 660.7444 227.7775 666.9483C 227.7775 673.1522 232.8126 678.1873 239.0166 678.1873z" stroke="none" fill="#254665" fill-rule="evenodd" /><path transform="matrix(1 0 0 -1 0 870)" d="M257.7483 656.4586L582.9307 656.4586L582.9307 655.7093L257.7483 655.7093z" stroke="none" fill="#254665" fill-rule="nonzero" /></g><g clip-path="url(#15)"><g clip-path="url(#16)"></g></g><g clip-path="url(#17)"></g><g clip-path="url(#18)"><g clip-path="url(#19)"></g></g><g clip-path="url(#20)"></g><g clip-path="url(#21)"><g clip-path="url(#22)"></g></g><g clip-path="url(#23)"></g><g clip-path="url(#24)"><g clip-path="url(#25)"></g></g><g clip-path="url(#26)"></g><g clip-path="url(#27)"><g clip-path="url(#28)"></g></g><g clip-path="url(#29)"></g><g clip-path="url(#30)"><g clip-path="url(#31)"></g></g><g clip-path="url(#32)"></g><g clip-path="url(#33)"><g clip-path="url(#34)"></g></g><g clip-path="url(#35)"></g><g clip-path="url(#36)"><g clip-path="url(#37)"></g></g><g clip-path="url(#38)"></g><g clip-path="url(#39)"><g clip-path="url(#40)"></g></g><g clip-path="url(#41)"></g><g clip-path="url(#42)"><g clip-path="url(#43)"></g></g><g clip-path="url(#44)"><path transform="matrix(1 0 0 -1 0 870)" d="M239.0166 562.8C 245.2205 562.8 250.2556 557.7649 250.2556 551.561C 250.2556 545.3571 245.2205 540.322 239.0166 540.322C 232.8126 540.322 227.7775 545.3571 227.7775 551.561C 227.7775 557.7649 232.8126 562.8 239.0166 562.8z" stroke="none" fill="#254665" fill-rule="evenodd" /><path transform="matrix(1 0 0 -1 0 870)" d="M257.7483 541.0712L582.9307 541.0712L582.9307 540.322L257.7483 540.322z" stroke="none" fill="#254665" fill-rule="nonzero" /></g><g clip-path="url(#45)"><g clip-path="url(#46)"></g></g><g clip-path="url(#47)"></g><g clip-path="url(#48)"><g clip-path="url(#49)"></g></g><g clip-path="url(#50)"></g><g clip-path="url(#51)"><g clip-path="url(#52)"></g></g><g clip-path="url(#53)"></g><g clip-path="url(#54)"><g clip-path="url(#55)"></g></g><g clip-path="url(#56)"></g><g clip-path="url(#57)"><g clip-path="url(#58)"></g></g><g clip-path="url(#59)"></g><g clip-path="url(#60)"><g clip-path="url(#61)"></g></g><g clip-path="url(#62)"></g><g clip-path="url(#63)"><g clip-path="url(#64)"></g></g><g clip-path="url(#65)"></g><g clip-path="url(#66)"><g clip-path="url(#67)"></g></g><g clip-path="url(#68)"></g><g clip-path="url(#69)"><g clip-path="url(#70)"></g></g><g clip-path="url(#71)"></g><g clip-path="url(#72)"><g clip-path="url(#73)"></g></g><g clip-path="url(#74)"><path transform="matrix(1 0 0 -1 0 870)" d="M239.0166 447.4127C 245.2205 447.4127 250.2556 442.3776 250.2556 436.1737C 250.2556 429.9697 245.2205 424.9347 239.0166 424.9347C 232.8126 424.9347 227.7775 429.9697 227.7775 436.1737C 227.7775 442.3776 232.8126 447.4127 239.0166 447.4127z" stroke="none" fill="#254665" fill-rule="evenodd" /><path transform="matrix(1 0 0 -1 0 870)" d="M257.7483 425.6839L582.9307 425.6839L582.9307 424.9346L257.7483 424.9346z" stroke="none" fill="#254665" fill-rule="nonzero" /></g><g clip-path="url(#75)"><g clip-path="url(#76)"></g></g><g clip-path="url(#77)"></g><g clip-path="url(#78)"><g clip-path="url(#79)"></g></g><g clip-path="url(#80)"><path transform="matrix(1 0 0 -1 0 870)" d="M239.0166 308.0488C 245.2205 308.0488 250.2556 303.0138 250.2556 296.8098C 250.2556 290.6058 245.2205 285.5708 239.0166 285.5708C 232.8126 285.5708 227.7775 290.6058 227.7775 296.8098C 227.7775 303.0138 232.8126 308.0488 239.0166 308.0488z" stroke="none" fill="#254665" fill-rule="evenodd" /><path transform="matrix(1 0 0 -1 0 870)" d="M257.7483 286.32L582.9307 286.32L582.9307 285.5707L257.7483 285.5707z" stroke="none" fill="#254665" fill-rule="nonzero" /></g><g clip-path="url(#81)"><g clip-path="url(#82)"></g></g><g clip-path="url(#83)"></g><g clip-path="url(#84)"><g clip-path="url(#85)"></g></g><g clip-path="url(#86)"><path transform="matrix(1 0 0 -1 0 870)" d="M227.7775 260.8448L591.9219 260.8448L591.9219 218.8859L227.7775 218.8859z" stroke="none" fill="#F8F8F8" fill-rule="nonzero" /><path transform="matrix(1 0 0 -1 0 870)" d="M227.7775 209.8947L591.9219 209.8947L591.9219 167.9356L227.7775 167.9356z" stroke="none" fill="#F8F8F8" fill-rule="nonzero" /><path transform="matrix(1 0 0 -1 0 870)" d="M227.7775 158.9444L591.9219 158.9444L591.9219 116.9854L227.7775 116.9854z" stroke="none" fill="#F8F8F8" fill-rule="nonzero" /></g></g></g></svg>